<svg width="13" height="13" viewBox="0 0 13 13" fill="none" xmlns="http://www.w3.org/2000/svg">
<path fill-rule="evenodd" clip-rule="evenodd" d="M3.5 0C3.63261 0 3.75979 0.0526784 3.85355 0.146447C3.94732 0.240215 4 0.367392 4 0.5V1H9V0.5C9 0.367392 9.05268 0.240215 9.14645 0.146447C9.24021 0.0526784 9.36739 0 9.5 0C9.63261 0 9.75979 0.0526784 9.85355 0.146447C9.94732 0.240215 10 0.367392 10 0.5V1H11.5C11.8978 1 12.2794 1.15804 12.5607 1.43934C12.842 1.72064 13 2.10218 13 2.5V11.5C13 11.8978 12.842 12.2794 12.5607 12.5607C12.2794 12.842 11.8978 13 11.5 13H1.5C1.10218 13 0.720644 12.842 0.43934 12.5607C0.158035 12.2794 0 11.8978 0 11.5V2.5C0 2.10218 0.158035 1.72064 0.43934 1.43934C0.720644 1.15804 1.10218 1 1.5 1H3V0.5C3 0.367392 3.05268 0.240215 3.14645 0.146447C3.24021 0.0526784 3.36739 0 3.5 0ZM9 2V2.5C9 2.63261 9.05268 2.75979 9.14645 2.85355C9.24021 2.94732 9.36739 3 9.5 3C9.63261 3 9.75979 2.94732 9.85355 2.85355C9.94732 2.75979 10 2.63261 10 2.5V2H11.5C11.6326 2 11.7598 2.05268 11.8536 2.14645C11.9473 2.24021 12 2.36739 12 2.5V4H1V2.5C1 2.36739 1.05268 2.24021 1.14645 2.14645C1.24021 2.05268 1.36739 2 1.5 2H3V2.5C3 2.63261 3.05268 2.75979 3.14645 2.85355C3.24021 2.94732 3.36739 3 3.5 3C3.63261 3 3.75979 2.94732 3.85355 2.85355C3.94732 2.75979 4 2.63261 4 2.5V2H9ZM1 5V11.5C1 11.6326 1.05268 11.7598 1.14645 11.8536C1.24021 11.9473 1.36739 12 1.5 12H11.5C11.6326 12 11.7598 11.9473 11.8536 11.8536C11.9473 11.7598 12 11.6326 12 11.5V5H1ZM6 6.5C6 6.36739 6.05268 6.24021 6.14645 6.14645C6.24021 6.05268 6.36739 6 6.5 6C6.63261 6 6.75979 6.05268 6.85355 6.14645C6.94732 6.24021 7 6.36739 7 6.5C7 6.63261 6.94732 6.75979 6.85355 6.85355C6.75979 6.94732 6.63261 7 6.5 7C6.36739 7 6.24021 6.94732 6.14645 6.85355C6.05268 6.75979 6 6.63261 6 6.5ZM8.5 6C8.36739 6 8.24021 6.05268 8.14645 6.14645C8.05268 6.24021 8 6.36739 8 6.5C8 6.63261 8.05268 6.75979 8.14645 6.85355C8.24021 6.94732 8.36739 7 8.5 7C8.63261 7 8.75979 6.94732 8.85355 6.85355C8.94732 6.75979 9 6.63261 9 6.5C9 6.36739 8.94732 6.24021 8.85355 6.14645C8.75979 6.05268 8.63261 6 8.5 6ZM10 6.5C10 6.36739 10.0527 6.24021 10.1464 6.14645C10.2402 6.05268 10.3674 6 10.5 6C10.6326 6 10.7598 6.05268 10.8536 6.14645C10.9473 6.24021 11 6.36739 11 6.5C11 6.63261 10.9473 6.75979 10.8536 6.85355C10.7598 6.94732 10.6326 7 10.5 7C10.3674 7 10.2402 6.94732 10.1464 6.85355C10.0527 6.75979 10 6.63261 10 6.5ZM10.5 8C10.3674 8 10.2402 8.05268 10.1464 8.14645C10.0527 8.24021 10 8.36739 10 8.5C10 8.63261 10.0527 8.75979 10.1464 8.85355C10.2402 8.94732 10.3674 9 10.5 9C10.6326 9 10.7598 8.94732 10.8536 8.85355C10.9473 8.75979 11 8.63261 11 8.5C11 8.36739 10.9473 8.24021 10.8536 8.14645C10.7598 8.05268 10.6326 8 10.5 8ZM8 8.5C8 8.36739 8.05268 8.24021 8.14645 8.14645C8.24021 8.05268 8.36739 8 8.5 8C8.63261 8 8.75979 8.05268 8.85355 8.14645C8.94732 8.24021 9 8.36739 9 8.5C9 8.63261 8.94732 8.75979 8.85355 8.85355C8.75979 8.94732 8.63261 9 8.5 9C8.36739 9 8.24021 8.94732 8.14645 8.85355C8.05268 8.75979 8 8.63261 8 8.5ZM6.5 8C6.36739 8 6.24021 8.05268 6.14645 8.14645C6.05268 8.24021 6 8.36739 6 8.5C6 8.63261 6.05268 8.75979 6.14645 8.85355C6.24021 8.94732 6.36739 9 6.5 9C6.63261 9 6.75979 8.94732 6.85355 8.85355C6.94732 8.75979 7 8.63261 7 8.5C7 8.36739 6.94732 8.24021 6.85355 8.14645C6.75979 8.05268 6.63261 8 6.5 8ZM4 8.5C4 8.36739 4.05268 8.24021 4.14645 8.14645C4.24021 8.05268 4.36739 8 4.5 8C4.63261 8 4.75979 8.05268 4.85355 8.14645C4.94732 8.24021 5 8.36739 5 8.5C5 8.63261 4.94732 8.75979 4.85355 8.85355C4.75979 8.94732 4.63261 9 4.5 9C4.36739 9 4.24021 8.94732 4.14645 8.85355C4.05268 8.75979 4 8.63261 4 8.5ZM2.5 8C2.36739 8 2.24021 8.05268 2.14645 8.14645C2.05268 8.24021 2 8.36739 2 8.5C2 8.63261 2.05268 8.75979 2.14645 8.85355C2.24021 8.94732 2.36739 9 2.5 9C2.63261 9 2.75979 8.94732 2.85355 8.85355C2.94732 8.75979 3 8.63261 3 8.5C3 8.36739 2.94732 8.24021 2.85355 8.14645C2.75979 8.05268 2.63261 8 2.5 8ZM2 10.5C2 10.3674 2.05268 10.2402 2.14645 10.1464C2.24021 10.0527 2.36739 10 2.5 10C2.63261 10 2.75979 10.0527 2.85355 10.1464C2.94732 10.2402 3 10.3674 3 10.5C3 10.6326 2.94732 10.7598 2.85355 10.8536C2.75979 10.9473 2.63261 11 2.5 11C2.36739 11 2.24021 10.9473 2.14645 10.8536C2.05268 10.7598 2 10.6326 2 10.5ZM4.5 10C4.36739 10 4.24021 10.0527 4.14645 10.1464C4.05268 10.2402 4 10.3674 4 10.5C4 10.6326 4.05268 10.7598 4.14645 10.8536C4.24021 10.9473 4.36739 11 4.5 11C4.63261 11 4.75979 10.9473 4.85355 10.8536C4.94732 10.7598 5 10.6326 5 10.5C5 10.3674 4.94732 10.2402 4.85355 10.1464C4.75979 10.0527 4.63261 10 4.5 10ZM6 10.5C6 10.3674 6.05268 10.2402 6.14645 10.1464C6.24021 10.0527 6.36739 10 6.5 10C6.63261 10 6.75979 10.0527 6.85355 10.1464C6.94732 10.2402 7 10.3674 7 10.5C7 10.6326 6.94732 10.7598 6.85355 10.8536C6.75979 10.9473 6.63261 11 6.5 11C6.36739 11 6.24021 10.9473 6.14645 10.8536C6.05268 10.7598 6 10.6326 6 10.5ZM8.5 10C8.36739 10 8.24021 10.0527 8.14645 10.1464C8.05268 10.2402 8 10.3674 8 10.5C8 10.6326 8.05268 10.7598 8.14645 10.8536C8.24021 10.9473 8.36739 11 8.5 11C8.63261 11 8.75979 10.9473 8.85355 10.8536C8.94732 10.7598 9 10.6326 9 10.5C9 10.3674 8.94732 10.2402 8.85355 10.1464C8.75979 10.0527 8.63261 10 8.5 10Z" fill="black"/>
</svg>
